<svg width="335" height="71" viewBox="0 0 335 71" fill="none" xmlns="http://www.w3.org/2000/svg">
<path d="M57.44 52.72L57.12 54.4H38.4V52.72C41.68 51.12 43.28 48.64 43.28 45.36V13.44H42.08L27.28 46H26.08L10.08 13.44H8.88L9.12 20.24L9.44 31.84C10 53.04 7.2 65.92 0.88 70.4V68.48C0.88 68.08 1.6 64.72 3.04 58.24C3.6 55.6 4.08 53.44 4.4 51.6C4.96 48.64 5.2 46.32 5.2 44.8L5.36 30.8L5.2 16.48C5.12 12.56 4.32 9.44 2.8 7.2C1.68 5.6 0.72 4 0 2.32H11.68C13.92 2.32 16.16 4.32 18.4 8.32C18.96 9.44 20.8 13.52 23.84 20.48C26 25.36 27.92 28.56 29.76 30L40.24 7.84C39.36 6.48 38.08 5.52 36.56 4.8V2.96H56.24V4.8C53.76 6.48 52.48 8.16 52.48 9.68V46.56C52.48 49.68 54.16 51.76 57.44 52.72ZM113.429 54.16H105.669L105.749 35.2C105.749 32.24 105.429 30.16 104.709 28.96C103.749 27.36 101.909 26.56 99.1888 26.56C94.7888 26.56 92.7088 28.16 92.8688 31.28L93.0288 34.4L93.2688 38V54.16H85.2688V31.12C85.2688 28.24 82.1488 26.24 79.0288 26.24C78.4688 26.24 77.4288 26.48 75.7488 26.96C74.0688 27.36 73.1088 27.68 72.8688 27.76V54.16H65.1888V32.4C65.1888 29.68 64.9488 27.84 64.3888 26.8C63.6688 25.36 62.0688 24.64 59.7487 24.64V24C59.7487 23.12 61.9888 21.2 66.3888 18.08C68.8688 18.08 71.1088 20.4 73.1088 25.04H73.8288C74.8688 23.92 76.4688 22.72 78.5488 21.36L83.7488 18.08C84.5488 18.08 85.9088 18.56 87.9088 19.44C89.9088 20.32 91.1088 20.96 91.5088 21.52L92.3888 23.52C92.7888 24.4 93.2688 24.96 93.6688 25.04C99.9888 20.4 103.589 18.08 104.469 18.08C107.269 18.08 109.509 19.2 111.189 21.52C112.709 23.52 113.429 25.92 113.429 28.88V54.16ZM140.94 44.96C137.9 51.28 135.82 54.48 134.7 54.48C129.82 54.48 125.82 52.8 122.7 49.52C119.66 46.16 118.14 42 118.14 37.12C118.14 33.6 118.7 30.88 119.74 29.04C120.62 27.52 122.38 25.44 125.02 22.8L127.82 20C129.02 18.8 130.06 18 130.86 17.76C136.7 21.68 139.98 24.48 140.62 26L125.98 40.24C126.94 42.32 128.22 43.76 129.82 44.56C131.18 45.2 133.1 45.52 135.58 45.52L138.3 45.2C139.9 45.04 140.78 44.96 140.94 44.96ZM132.46 30.32C131.82 28.96 129.18 26.8 127.82 26.56C126.7 26.56 125.74 27.52 124.94 29.36C124.22 30.88 123.9 32.24 123.9 33.6C123.9 35.36 124.46 36.56 125.58 37.12L132.46 30.32ZM216.03 40.24C214.91 44.8 212.03 48.4 207.47 51.04C203.39 53.36 198.91 54.48 193.87 54.48C186.91 54.48 180.99 52.08 176.03 47.2C171.15 42.32 168.67 36.4 168.67 29.44C168.67 22 171.23 15.68 176.27 10.32C181.39 4.96 187.63 2.32 194.99 2.32C202.51 2.32 208.75 4.96 213.63 10.16C210.19 13.28 207.47 15.44 205.47 16.8C202.83 10.32 198.75 7.12 193.23 7.12C188.59 7.12 184.83 9.52 181.95 14.24C179.47 18.32 178.19 22.8 178.19 27.6C178.19 33.44 179.79 38.24 183.07 42C186.51 46.08 191.07 48.08 196.75 48.08C200.59 48.08 203.87 47.36 206.67 45.92C207.95 45.2 209.63 44 211.71 42.16C213.15 40.88 214.59 40.24 216.03 40.24ZM234.028 50C234.028 50.72 231.948 52.08 227.868 54.24C223.548 50.8 221.388 48.64 221.388 47.84V14.88C221.388 12.08 220.428 9.52 218.428 7.2V6.24L224.028 3.04C227.068 1.36 228.908 0.639996 229.548 0.959996V41.04C229.548 43.28 229.948 44.96 230.668 46.16C231.068 46.56 231.788 47.28 232.908 48.16C233.628 48.72 234.028 49.28 234.028 50ZM259.846 44.96C256.806 51.28 254.726 54.48 253.606 54.48C248.726 54.48 244.726 52.8 241.606 49.52C238.566 46.16 237.046 42 237.046 37.12C237.046 33.6 237.606 30.88 238.646 29.04C239.526 27.52 241.286 25.44 243.926 22.8L246.726 20C247.926 18.8 248.966 18 249.766 17.76C255.606 21.68 258.886 24.48 259.526 26L244.886 40.24C245.846 42.32 247.126 43.76 248.726 44.56C250.086 45.2 252.006 45.52 254.486 45.52L257.206 45.2C258.806 45.04 259.686 44.96 259.846 44.96ZM251.366 30.32C250.726 28.96 248.086 26.8 246.726 26.56C245.606 26.56 244.646 27.52 243.846 29.36C243.126 30.88 242.806 32.24 242.806 33.6C242.806 35.36 243.366 36.56 244.486 37.12L251.366 30.32ZM283.871 23.52H276.031V42.56C276.031 46.32 278.431 48.16 283.231 48.16V49.36C278.831 52.64 276.351 54.24 275.791 54.24C274.111 54.32 272.351 53.36 270.591 51.52C268.911 49.6 268.031 47.76 268.031 46V24.24C267.631 23.92 267.071 23.68 266.191 23.52L264.351 23.44L262.351 23.52V20.24L273.711 10.24H275.791L275.951 14.24V17.36C275.871 17.92 275.791 18.16 275.791 18.24H283.871V23.52ZM308.168 23.52H300.328V42.56C300.328 46.32 302.728 48.16 307.528 48.16V49.36C303.128 52.64 300.648 54.24 300.088 54.24C298.408 54.32 296.648 53.36 294.888 51.52C293.208 49.6 292.328 47.76 292.328 46V24.24C291.928 23.92 291.368 23.68 290.488 23.52L288.648 23.44L286.648 23.52V20.24L298.008 10.24H300.088L300.248 14.24V17.36C300.168 17.92 300.088 18.16 300.088 18.24H308.168V23.52ZM334.065 44.96C331.025 51.28 328.945 54.48 327.825 54.48C322.945 54.48 318.945 52.8 315.825 49.52C312.785 46.16 311.265 42 311.265 37.12C311.265 33.6 311.825 30.88 312.865 29.04C313.745 27.52 315.505 25.44 318.145 22.8L320.945 20C322.145 18.8 323.185 18 323.985 17.76C329.825 21.68 333.105 24.48 333.745 26L319.105 40.24C320.065 42.32 321.345 43.76 322.945 44.56C324.305 45.2 326.225 45.52 328.705 45.52L331.425 45.2C333.025 45.04 333.905 44.96 334.065 44.96ZM325.585 30.32C324.945 28.96 322.305 26.8 320.945 26.56C319.825 26.56 318.865 27.52 318.065 29.36C317.345 30.88 317.025 32.24 317.025 33.6C317.025 35.36 317.585 36.56 318.705 37.12L325.585 30.32Z" fill="black"/>
</svg>
